<svg width="51" height="51" viewBox="0 0 51 51" fill="none" xmlns="http://www.w3.org/2000/svg">
<rect x="1.29614" y="0.889526" width="49" height="49" rx="24.5" fill="#80C870"/>
<rect x="1.29614" y="0.889526" width="49" height="49" rx="24.5" stroke="#50804E"/>
<circle cx="18.3" cy="17.5219" r="2.5" fill="#50804E"/>
<circle cx="33.3" cy="17.5219" r="2.5" fill="#50804E"/>
<path d="M25.8 37.7556C19.5518 37.6309 15.9478 33.373 14.2421 30.1337C13.9196 29.5213 14.7561 28.7586 15.418 28.9612C17.404 29.5689 20.7375 30.1229 25.8434 30.0875C30.5878 30.1024 34.0653 29.5315 36.1644 28.9173C36.8287 28.7229 37.6805 29.5213 37.358 30.1337C35.6523 33.373 32.0483 37.6309 25.8 37.7556Z" fill="#50804E"/>
<path d="M25.8486 37.7565C19.5705 37.653 15.9522 33.3814 14.2421 30.1337C13.9196 29.5213 14.7561 28.7586 15.418 28.9612C17.4245 29.5752 20.8063 30.1343 26.0018 30.0862M25.7515 37.7565C32.0296 37.653 35.6479 33.3814 37.358 30.1337C37.6805 29.5213 36.8287 28.7229 36.1644 28.9173C34.0293 29.5421 30.4682 30.1219 25.5983 30.0862" stroke="#50804E"/>
</svg>
