<svg width="57" height="57" viewBox="0 0 57 57" fill="none" xmlns="http://www.w3.org/2000/svg">
<path d="M2.79614 28.3895C2.79614 14.5824 13.989 3.38953 27.7961 3.38953C41.6033 3.38953 52.7961 14.5824 52.7961 28.3895C52.7961 42.1966 41.6033 53.3895 27.7961 53.3895C13.989 53.3895 2.79614 42.1966 2.79614 28.3895Z" fill="#FFE4C4"/>
<path d="M2.79614 28.3895C2.79614 14.5824 13.989 3.38953 27.7961 3.38953C41.6033 3.38953 52.7961 14.5824 52.7961 28.3895C52.7961 42.1966 41.6033 53.3895 27.7961 53.3895C13.989 53.3895 2.79614 42.1966 2.79614 28.3895Z" fill="white" fill-opacity="0.2"/>
<path d="M8.09446 39.7131C8.13672 39.3206 8.58919 40.2876 8.52208 39.511C8.62661 39.6192 8.73344 39.7262 8.84008 39.8312C8.7393 39.9352 8.63951 40.0406 8.53897 40.1462C8.3887 40.005 8.24059 39.8612 8.09386 39.7134C8.09406 39.7133 8.09426 39.7132 8.09446 39.7131ZM6.41552 40.3402C6.86188 40.3204 7.27765 40.7774 7.25246 40.0342C7.10559 40.0578 6.95825 40.0791 6.81171 40.1004C6.78654 39.8491 6.76369 39.5991 6.74356 39.3521C6.6577 39.3044 6.57223 39.2558 6.48767 39.2061C6.64443 39.0082 6.80249 38.814 6.96023 38.6223C6.97402 38.7168 6.98828 38.8128 7.00286 38.9077C7.3492 39.1356 7.55758 39.3814 7.8499 39.7708C7.87613 39.707 7.90196 39.6437 7.92836 39.5805C7.97634 39.8325 8.02698 40.0858 8.0804 40.3393C7.87921 40.2133 7.6575 40.066 7.47508 39.94C7.31741 40.3996 7.81005 40.7754 8.04685 40.97C8.36892 41.2376 8.16266 41.2648 8.40151 41.4622C8.43965 41.4937 8.56368 41.4161 8.6214 41.4892C8.90846 41.8595 9.4234 42.6157 8.80658 42.4058C8.35801 41.7666 7.7404 41.3673 7.40197 40.6601C7.18669 41.0315 6.84798 40.7573 6.41552 40.3402ZM17.8918 48.8731C17.5763 48.9977 17.1895 48.7078 16.9858 48.4223C16.9855 48.4221 16.9852 48.4219 16.9849 48.4218C16.9393 48.3584 16.951 48.0139 17.1459 48.1241C17.4615 48.301 17.398 48.8224 17.7273 48.5992C17.7777 48.6916 17.8358 48.7796 17.8918 48.8731ZM18.6447 49.1582C18.8054 49.3565 18.5563 49.6734 18.3305 49.4668C18.3304 49.4671 18.3303 49.4674 18.3302 49.4676C18.2368 49.381 18.5796 49.199 18.0556 49.309C18.0754 49.0583 18.0895 48.829 18.1114 48.5885C18.2071 48.6257 18.2958 48.6566 18.3963 48.695C18.1643 49.0221 18.4849 48.9613 18.6447 49.1582ZM9.19556 42.6098C9.44721 42.4633 9.34678 42.3459 9.34283 42.0285C9.48879 42.2221 9.63739 42.4143 9.78838 42.6027C9.59021 42.6081 9.39338 42.6108 9.19556 42.6098ZM6.10502 37.6747C6.10486 37.6743 6.1047 37.674 6.10454 37.6736C6.03332 37.6151 5.96247 37.556 5.89327 37.4972C5.9541 37.4188 6.01482 37.3416 6.07565 37.2644C5.87925 37.0351 5.68744 36.798 5.50136 36.5563C5.75907 36.4999 5.92182 36.9919 6.21541 37.1765C6.31809 37.5854 6.26594 37.8318 6.06601 37.9503C6.07871 37.8584 6.09232 37.7668 6.10502 37.6747ZM51.6603 23.4236C51.5007 23.3545 51.341 23.2885 51.181 23.2233C51.1454 23.3645 51.1235 23.5016 51.0753 23.6441C51.7488 23.8586 51.219 23.9979 51.3312 24.431C51.6494 25.7563 52.566 25.3413 51.2657 26.6897C51.2534 25.7048 50.622 26.1378 50.0527 25.6316C50.4243 25.4605 51.3629 25.9415 51.4976 25.5228C51.0063 24.8816 50.5254 24.3007 50.1159 23.6352C50.0548 23.6703 49.9932 23.7051 49.9319 23.7397C49.9969 23.8454 50.0608 23.9489 50.1241 24.0553C49.9242 23.9659 49.7262 23.883 49.523 23.7974C49.9545 23.8698 49.6484 23.5189 50.1166 23.4719C50.3255 23.4508 50.6469 23.5715 50.8643 23.6416C50.9132 23.3376 50.9456 23.0265 50.9787 22.7164C51.1757 22.8249 51.3724 22.9368 51.568 23.0514C51.6007 23.1744 51.6308 23.2971 51.6616 23.4209C51.6612 23.4218 51.6607 23.4227 51.6603 23.4236ZM5.32493 21.1044C5.22234 20.6874 5.4279 20.0406 5.8299 19.8225C5.64896 20.2457 5.48161 20.671 5.32493 21.1044ZM5.90378 38.0525C5.92575 37.997 5.94789 37.943 5.96995 37.8879C6.12322 38.022 6.27865 38.154 6.43618 38.2814C6.33601 38.3664 6.23616 38.4526 6.13693 38.5396C6.05751 38.3787 5.97977 38.2155 5.90378 38.0525ZM13.4289 46.8937C13.3159 46.8229 13.3096 46.8116 13.1921 46.6943C13.1922 46.6945 13.1922 46.6947 13.1923 46.6949C13.1441 46.6496 12.7723 46.2413 12.9008 46.1836C13.1144 46.3484 13.3421 46.5232 13.5649 46.6853C13.5207 46.7556 13.4717 46.8215 13.4289 46.8937ZM11.0269 44.7786C11.0268 44.7782 11.0267 44.7777 11.0267 44.7773C10.9681 44.6959 10.9272 44.6052 10.8592 44.5291C11.2557 44.6556 11.0585 44.9297 11.3709 45.0912C11.6848 45.2505 11.9652 45.2424 11.8616 45.7752C11.7338 45.7576 11.5793 45.7551 11.4413 45.7403C11.2129 45.2808 10.9993 45.3207 10.5909 45.1734C10.7367 45.0418 10.8813 44.9107 11.0269 44.7786ZM50.6956 29.5694C51.0425 29.677 50.692 29.7587 50.6873 29.7681C50.6869 29.7679 50.6865 29.7677 50.6861 29.7675C50.9582 30.576 50.5028 29.6558 50.3914 30.3843C50.3132 30.2681 50.229 30.1543 50.148 30.0411C50.329 29.8884 50.5314 29.7273 50.6956 29.5694ZM36.9167 49.5943C36.873 49.5113 36.828 49.4286 36.7845 49.3455C37.1994 49.182 37.1421 48.7975 37.6144 48.9409C37.389 49.1636 37.1566 49.3817 36.9172 49.5953C36.917 49.595 36.9169 49.5947 36.9167 49.5943ZM15.0562 48.6078C14.5424 48.458 14.1829 48.292 13.9002 47.8357C13.9 47.8352 13.8999 47.8348 13.8997 47.8343C13.8841 47.8076 14.0842 47.7636 14.0754 47.712C13.9787 47.6733 13.8725 47.6417 13.7728 47.6043C13.8316 47.5003 13.8911 47.3968 13.9497 47.2937C14.1637 47.483 14.3814 47.6693 14.6034 47.8528C14.6075 47.7716 14.6106 47.6905 14.6152 47.6097C14.8387 47.7109 15.0617 47.807 15.2872 47.8997C15.1077 48.0247 14.9273 48.1477 14.7461 48.2694C14.848 48.3829 14.9522 48.4947 15.0562 48.6078ZM43.8365 46.3243C43.7046 46.2996 43.6972 46.065 43.5425 46.0809C43.3894 46.0973 43.3464 46.4002 43.1897 46.1371C43.2893 45.9956 43.3892 45.8431 43.4857 45.6964C42.7243 45.6612 42.6331 46.3782 42.1997 45.8694C42.6995 45.6729 42.9656 45.3258 43.1929 44.8506C43.5482 45.2523 43.4815 45.943 44.0586 46.0911C43.9856 46.1682 43.9102 46.2509 43.8366 46.3227C43.8366 46.3232 43.8366 46.3238 43.8365 46.3243ZM0.875084 31.114C0.878135 30.7558 0.787268 29.9285 0.932571 29.4726C0.968085 29.3588 1.38147 28.9805 1.43307 28.9824C1.6083 28.9901 1.62582 29.4283 1.74947 28.9548C1.74745 29.113 1.75243 29.2661 1.75534 29.4225C1.87619 29.3898 1.99639 29.3575 2.11618 29.3267C2.09648 29.1394 2.07911 28.9511 2.06391 28.7622C2.10306 28.7524 2.14225 28.7426 2.18132 28.7328C2.17863 29.4088 2.33161 29.007 2.47992 29.3488C2.54488 29.0281 2.61274 28.7064 2.68409 28.3895C2.67457 28.5724 2.66965 28.7878 2.66203 28.9487C2.86349 28.9655 2.80887 28.5854 2.84604 28.5194C3.03899 28.154 2.98902 30.0154 3.32838 30.1435C3.33631 29.8482 3.34654 29.539 3.36215 29.2405C3.40362 29.3247 3.446 29.4096 3.48909 29.4928C3.32998 30.1785 3.32792 30.9455 3.30592 31.7553C3.32558 31.8254 3.34588 31.8954 3.36566 31.964C3.46356 31.9286 3.56109 31.8946 3.65867 31.8597C3.6881 31.964 3.71829 32.0681 3.74949 32.1727C3.36081 31.9105 3.4362 32.3435 3.32763 32.9123C3.15415 32.6515 3.17047 32.286 2.95431 32.3451C3.27599 33.2996 3.27794 34.4937 3.75163 35.3721C3.87036 35.5879 4.17232 35.4942 4.31935 36.0313C4.27931 36.0244 4.21688 36.0413 4.16833 36.0441C4.62385 36.9139 4.9298 37.4083 5.18125 38.3895C5.27218 38.286 5.36398 38.184 5.45491 38.0824C5.3109 37.9163 5.16911 37.7483 5.03145 37.5779C5.16507 37.3699 5.32528 37.5327 5.08797 36.9572C4.89855 36.4829 4.92848 36.7958 4.82298 36.6861C4.68109 36.5362 4.77118 36.3295 4.61965 36.1666C4.50406 36.0392 4.40628 36.2518 4.3137 35.8466C4.56159 35.9426 4.82019 36.0341 5.07712 36.1187C5.06706 36.2258 5.05638 36.3328 5.0465 36.4409C4.95784 36.3665 4.87125 36.2924 4.78416 36.2159C4.99988 36.5161 5.21129 36.7927 5.45187 37.0871C5.11681 37.0903 5.36975 37.3968 5.48717 37.5681C5.66992 37.8355 5.35859 37.6708 5.47721 37.8476C5.59721 38.0253 5.91627 38.1294 6.03469 38.4854C5.81493 38.3655 5.81878 38.6657 5.67468 38.6746C5.52997 38.6836 5.33107 38.3267 5.36541 38.741C5.79191 39.3685 5.89558 38.4246 6.19429 38.8331C6.55963 39.3095 5.87916 39.8275 5.63144 39.7494C5.43663 39.6871 5.24067 39.225 5.05332 39.1521C5.21207 40.0796 5.67902 39.8522 5.83643 39.9388C6.42165 40.2473 5.38014 40.393 6.01369 40.7974C5.84639 40.8786 5.69647 40.9524 5.53579 41.0293C5.62136 41.1143 5.69799 41.159 5.79058 41.2667C5.90162 40.7271 6.05349 41.0281 6.1406 41.1739C6.27818 41.4046 6.22053 40.9568 6.29632 40.9951C6.49858 41.097 6.60772 41.3797 6.64995 41.1398C6.62848 41.2486 6.61109 41.3644 6.59221 41.4763C6.83585 41.7007 7.90785 41.8495 7.39362 41.3767C7.67801 41.2701 7.67985 41.5253 7.73922 41.6905C7.79864 41.8553 7.95541 41.7457 8.01282 41.8863C8.24431 42.4459 7.74591 42.3257 7.47774 42.3904C8.09294 42.9382 7.72076 42.2465 8.51317 43.0796C8.75201 43.0328 8.61184 42.4906 8.97989 42.7506C8.73264 43.038 8.71531 43.4575 9.02861 44.0226C9.13619 44.0131 9.24427 44.002 9.35184 43.9907C9.3087 44.4761 8.9105 44.5995 9.67581 44.7776C8.83281 45.0705 9.37773 44.895 9.53163 45.553C9.56397 45.6876 9.24895 45.6019 9.29994 45.7851C9.32345 45.8687 9.54455 45.914 9.60161 46.119C9.62796 46.2184 9.69855 46.7593 10.0208 46.8581C10.1523 46.413 10.7922 46.5415 10.6894 45.9728C11.2552 46.6248 11.8532 46.8808 10.7456 46.643C10.8226 46.8865 10.9035 47.1309 10.9879 47.3761C11.1714 47.4064 11.3555 47.4352 11.5396 47.4609C11.3328 47.7394 11.248 47.8034 11.7657 48.1543C11.5053 48.0471 11.2458 47.9354 10.9871 47.8162C10.9344 47.863 10.8582 47.8923 10.8206 47.9496C11.1567 48.0791 11.9199 48.6385 12.1596 48.7011C12.3964 48.7669 12.0665 48.4749 12.1745 48.4433C13.0613 48.1769 12.6875 48.5888 13.0765 48.7145C13.3039 48.7839 12.9197 48.3999 13.0366 48.4443C13.4656 48.6069 13.399 49.0577 13.7267 49.2889C13.7401 49.0156 13.7596 48.7424 13.7831 48.4742C14.1112 48.7149 14.4907 48.9641 14.8527 49.0968C14.9945 49.1488 14.9924 48.9409 15.0192 48.9435C15.1528 48.9554 15.6176 49.1142 15.6625 49.1373C15.9963 49.3227 15.8839 49.5437 16.2091 49.7336C16.0687 49.6829 15.9373 49.6333 15.8009 49.5808C15.5452 49.8984 15.2861 50.2125 15.0258 50.525C15.345 50.7467 15.6704 50.9617 16.0008 51.1704C15.8118 50.9163 15.6274 50.6617 15.4489 50.4061C15.9903 50.3391 16.5238 50.2467 17.0509 50.1323C17.1585 50.4099 17.2699 50.6883 17.3879 50.9685C17.9687 51.173 18.1875 50.3451 18.1614 51.1353C18.3505 51.1469 18.539 51.1557 18.7272 51.1627C18.6643 51.252 18.6014 51.3413 18.538 51.43C18.7634 51.4499 18.9884 51.4664 19.2137 51.4782C19.133 51.0456 19.0737 50.6003 19.0106 50.1871C19.4174 50.2525 19.3109 50.5511 19.3398 50.6473C19.4181 50.9018 19.8202 50.7378 19.876 50.9637C19.8956 51.0429 19.441 51.1102 19.4899 51.3858C19.4949 51.4369 19.7292 52.4769 20.1453 52.3904C20.1888 52.2314 20.2237 52.0306 20.2647 51.8558C20.7457 51.9004 20.7393 52.7964 20.6106 53.0128C20.9104 52.9259 21.2842 53.013 21.4036 52.7671C21.5343 52.7948 21.662 52.821 21.7922 52.8464C21.4992 53.4484 22.0782 53.4697 22.2369 52.923C22.0181 52.8588 21.8006 52.7912 21.5848 52.7216C21.9211 52.0916 21.354 51.541 22.5763 52.4718C22.7647 52.8827 22.1171 52.3214 22.2737 52.6324C22.6167 52.8713 22.9966 52.8124 23.3131 53.128C23.7115 53.5186 23.1043 53.7376 24.2361 53.5013C22.0699 52.1102 24.6582 52.9162 25.7581 52.6458C25.9392 53.5688 26.705 54.0042 27.7961 53.866C27.937 53.8479 28.0825 53.82 28.2316 53.7822C28.1486 53.611 27.9746 53.5945 27.7961 53.5883C27.6715 53.584 27.5452 53.5849 27.4491 53.544C27.2167 53.4444 27.4711 53.2767 27.186 53.1357C26.9013 52.9957 26.3064 52.7866 26.0365 52.565C26.2943 52.4266 27.4802 52.0709 26.6849 52.5122C27.1113 52.7407 27.3761 52.9647 27.7961 53.0846C27.938 53.1247 28.0972 53.1524 28.2855 53.1621C28.4985 52.6981 28.4725 52.4205 29.1727 52.3649C28.7819 53.0297 29.6302 53.425 29.4939 54.0975C28.95 53.9722 29.2115 53.3144 28.9003 53.0227C28.8697 52.9946 28.3984 53.1726 28.2855 53.1621C28.7815 53.7234 28.9774 53.9311 28.6878 54.6238C29.0463 54.5555 29.2756 54.63 29.2902 54.3009C29.3731 54.4394 29.4577 54.578 29.5418 54.7164C29.6601 54.7064 29.7658 54.6868 29.8912 54.6811C29.6809 54.1964 30.038 54.4805 30.251 54.2348C30.4613 53.9875 30.1138 53.6281 30.7408 53.5556C30.5185 53.4625 30.3179 53.3819 30.1095 53.29C30.4942 53.1259 30.8793 52.9497 31.2497 52.7654C30.9308 52.5015 30.2974 52.1198 30.2741 51.717C30.4649 51.8498 31.0203 51.5012 31.0797 51.4785C31.3195 51.3984 31.2228 51.6728 31.2422 51.6762C31.6522 51.737 31.959 51.5886 32.1789 51.9438C32.4426 51.7125 32.6822 51.7644 32.9933 51.6825C33.1638 51.6371 33.0656 51.3627 33.177 51.3922C33.9154 51.5792 33.4047 52.1227 34.4754 51.0651C34.2667 50.9157 34.0622 50.7593 33.86 50.6045C33.9782 50.4904 34.0935 50.3752 34.2077 50.259C34.309 50.2662 34.4097 50.2734 34.5114 50.2794C34.6392 50.7036 34.7667 51.1287 34.8943 51.5529C35.0069 51.543 35.1209 51.5312 35.2343 51.5196C35.0654 51.6209 34.8955 51.7199 34.7239 51.8168C34.7291 51.8965 34.7353 51.9758 34.7402 52.0555C35.05 52.0895 35.3628 52.1193 35.6794 52.143C35.636 51.9944 35.5921 51.8448 35.5485 51.6962C36.2283 51.6906 36.3004 51.8062 36.719 51.1829C37.1633 51.0127 37.257 50.2554 37.3802 49.894C37.5017 49.9352 37.6247 49.9766 37.7487 50.0159C37.749 49.8709 37.749 49.7262 37.7471 49.5813C37.9318 49.6948 38.1201 49.8061 38.3094 49.9152C38.1877 49.511 38.1579 49.3837 37.682 49.4546C37.6057 48.9226 38.4096 48.764 38.7805 48.7536C39.0624 48.7479 39.0266 49.2647 39.0782 49.2959C39.2581 49.4027 39.5526 49.0575 39.6427 49.0381C40.0295 48.9553 40.2438 48.798 40.5836 48.6962C40.6496 48.6771 40.9568 48.8089 40.9753 48.8072C41.1053 48.7797 41.437 48.7204 41.4684 48.7033C43.0688 47.8261 40.8138 47.9671 42.1977 47.0865C42.0612 46.9894 41.9291 46.8901 41.7948 46.7912C41.8841 46.7093 41.974 46.6264 42.0618 46.5432C42.264 46.5527 42.2727 46.8613 42.3865 46.5138C42.4957 46.681 42.6045 46.8485 42.7113 47.0161C42.7502 46.8466 42.7835 46.6811 42.8203 46.5098C43.4268 46.906 44.1451 46.4811 44.6471 47.1213C44.8208 47.3401 44.5467 47.9556 44.9856 47.9648C45.224 47.8334 44.8696 47.7046 44.9387 47.6206C45.4318 47.016 45.7129 47.3789 45.8599 47.0699C45.7575 46.8918 45.6532 46.7097 45.5482 46.5306C45.6733 46.4904 45.7987 46.4488 45.9247 46.4056C45.849 46.2914 45.7735 46.1766 45.697 46.0629C45.6135 46.1346 45.5196 46.2155 45.4417 46.2797C45.1867 45.8136 45.8753 44.743 45.8703 45.3963C45.8672 45.6643 45.5549 45.8743 46.1592 46.1356C46.3396 45.8228 46.5425 45.4713 46.7178 45.1394C46.8249 45.2192 46.9318 45.2995 47.0392 45.379C47.3037 44.9479 46.6028 44.9391 46.3916 44.7474C46.4584 44.6593 46.526 44.5706 46.5915 44.4817C46.7199 44.5302 46.8518 44.5839 46.9795 44.6269C46.8257 44.4898 46.5011 44.1361 46.8444 43.9978C47.0673 43.9071 47.2586 44.4964 47.4601 44.1329C47.1888 43.9562 46.7979 43.822 46.9893 43.411C47.2806 43.5838 47.5615 43.724 47.8625 43.9123C47.9516 43.2662 48.5274 43.3643 48.5999 42.5973C48.6485 42.1073 48.2234 41.1902 49.4814 41.6429C49.6736 41.3943 49.3415 41.3106 49.3255 41.1949C49.2439 40.6527 49.9376 40.6827 50.0108 40.6269C50.4671 40.2849 50.3812 39.979 50.8347 39.7304C50.6056 39.6432 50.393 39.5518 50.1719 39.4623C50.3288 39.9655 50.2227 40.1368 49.8954 40.5701C49.9401 40.3883 49.9812 40.2066 50.0212 40.0251C49.8324 39.9592 49.6441 39.8924 49.4574 39.8247C49.3467 41.6321 48.4909 40.6677 48.8721 39.3882C49.2486 39.4574 49.6282 39.5174 50.009 39.578C49.8628 38.6229 50.4487 38.5064 50.9005 37.7126C50.9538 37.6181 50.8976 37.1792 50.9446 37.0202C50.9423 37.0223 50.94 37.0244 50.9377 37.0265C50.6475 36.8087 50.4489 36.8833 50.1524 36.7883C50.1463 36.6931 50.14 36.5977 50.1325 36.5033C50.4203 36.4021 50.5833 36.5312 50.6547 36.1473C50.4142 36.1207 50.1742 36.0919 49.9345 36.0623C50.0586 35.6731 50.386 35.4903 50.3885 35.0898C50.4562 35.1771 50.5239 35.2644 50.5907 35.3529C51.0478 34.605 52.2008 35.6366 51.7098 34.812C51.8381 34.8025 51.9674 34.7938 52.096 34.783C52.0541 35.0601 52.0067 35.3362 51.9559 35.6105C52.1189 35.6651 52.2811 35.72 52.4444 35.7737C52.4825 35.4679 52.5138 35.1598 52.5406 34.8533C52.5963 35.0967 52.6482 35.3431 52.6967 35.59C52.8748 35.2719 53.0476 34.9454 53.213 34.618C52.5077 34.8318 52.5498 34.341 51.9184 34.2823C52.5638 33.8247 53.3538 33.4621 53.0751 32.4311C53.0174 32.2262 52.5703 32.2703 53.1735 31.81C52.4658 31.8419 52.2221 31.1485 51.5501 31.1587C51.5618 31.338 51.5589 31.5223 51.5745 31.6973C51.8286 31.5363 52.4634 31.5789 52.6075 31.9123C52.7914 32.3393 52.2574 32.839 52.9532 32.9386C52.8921 33.0911 52.8451 33.234 52.7875 33.381C52.6289 33.2843 52.4685 33.1899 52.3088 33.0967C52.4958 33.5733 52.3457 33.8341 51.8721 33.9361C51.8882 33.4129 51.8872 32.8974 51.8704 32.3807C51.8288 32.4495 51.7865 32.519 51.7454 32.5872C51.3643 32.1383 50.8867 32.4476 50.8935 31.7567C51.0964 31.7903 51.2995 31.8231 51.5035 31.857C50.9986 31.5259 51.0778 30.8549 50.4244 30.9981C50.6397 30.8202 50.7662 30.7874 50.4378 30.6416C50.9667 30.1664 51.5926 29.8373 52.305 30.0874C52.2028 29.8678 52.0976 29.6485 51.9895 29.4375C51.7859 29.5493 51.5825 29.6585 51.3775 29.7657C51.4101 29.4107 51.4347 29.0565 51.4506 28.7004C52.0411 28.6737 51.6123 29.3954 52.1431 29.2009C52.2501 29.1613 52.0296 28.9583 52.0898 28.9083C52.7421 28.3697 52.262 29.2259 52.7567 29.0762C52.8764 28.4929 53.3106 28.6501 53.3232 28.3895C53.3232 28.3895 53.3232 28.3895 53.3232 28.3895C53.3276 28.2794 53.2561 28.0915 53.0419 27.7512C53.2107 27.7163 53.3829 27.6784 53.5506 27.6447C53.5475 27.2331 53.1654 27.2843 53.0749 26.9406C53.018 26.7285 53.6696 26.4016 53.1921 26.1966C53.1032 26.1646 52.3231 26.6212 52.2801 25.7992C52.2372 25.1576 52.8431 25.3548 53.002 24.9744C53.1604 24.5842 52.2335 23.9197 53.081 23.5158C52.9983 23.7245 52.9768 23.9725 52.9131 24.1948C53.1023 24.2496 53.2892 24.3042 53.477 24.3617C53.1762 23.918 53.3475 23.3767 52.8662 23.1444C53.3684 22.3738 52.5976 21.8095 51.9411 22.1836C52.0933 22.3559 52.3479 22.0619 52.2201 22.3889C52.0619 22.4579 51.9046 22.5276 51.7459 22.5955C51.6543 22.1277 51.5574 21.8039 52.1164 21.8834C52.1088 21.8068 52.1009 21.7309 52.0925 21.6543C51.7275 21.7412 51.3617 21.8304 50.997 21.9184C50.9332 21.8462 50.8693 21.7741 50.8049 21.7032C50.8574 21.5882 50.91 21.4721 50.9615 21.3544C51.5647 21.3072 51.6593 21.5318 51.745 20.6972C51.5494 20.7576 51.3543 20.8168 51.1587 20.8773C51.2089 20.1977 51.6737 20.014 51.3658 19.2557C52.2582 19.5969 51.1797 20.3452 52.5258 19.8767C52.4905 20.0605 52.4523 20.2449 52.4129 20.4267C52.6172 20.3864 52.8219 20.3464 53.0261 20.3061C52.6493 19.468 50.8718 18.6693 51.4527 17.7945C51.3241 17.7756 51.2085 17.7513 51.0723 17.7365C51.3228 16.9935 50.1288 17.3134 50.4901 16.4971C50.5251 16.4107 51.6015 15.9936 51.1869 15.3336C51.0675 15.4225 50.8554 15.5522 50.7003 15.6562C50.6992 15.4692 50.7 15.2803 50.6968 15.0921C50.564 15.1349 50.4307 15.1768 50.2975 15.221C50.3931 15.487 50.4829 15.7538 50.5691 16.0218C50.4177 15.8425 50.2635 15.6648 50.1082 15.4909C50.0649 15.8599 50.1248 15.9746 49.7277 15.9968C49.5845 15.7874 49.4371 15.5811 49.2882 15.377C49.1967 15.4022 49.1045 15.4282 49.0133 15.4539C48.844 15.6989 48.6773 15.9387 48.4985 16.1799C48.3701 15.5229 48.0837 15.0573 48.2427 14.3473C48.2681 14.2268 48.7317 14.272 48.1365 13.9778C48.2836 13.8624 48.3981 13.7617 48.5327 13.6532C47.684 13.3718 47.6811 13.1068 47.4952 12.2815C47.5309 12.8813 47.4336 12.3986 47.21 12.4232C47.0569 12.4404 47.2795 12.6822 47.1504 12.7388C47.021 12.7923 46.3399 12.8177 46.5125 13.1324C47.9297 13.1217 47.0231 14.1224 48.0874 14.7269C47.871 14.6644 47.654 14.6044 47.4386 14.5488C47.4044 14.6707 47.3722 14.7801 47.3349 14.9097C47.1673 14.284 47.2181 14.608 46.9345 14.5064C46.6499 14.4051 46.2661 14.1354 46.0447 13.9307C45.9748 13.8659 46.2327 13.7884 46.1172 13.6058C46.0377 13.4794 45.5031 13.4118 45.7749 13.0595C45.9462 12.8247 46.9811 12.8314 46.3736 12.1266C46.4665 11.8108 46.6971 12.2063 46.7281 12.1925C47.0356 12.0414 46.8361 11.4317 46.4648 11.4018C46.4346 11.4007 46.3859 11.7293 46.1574 11.6277C45.6148 11.3915 45.6147 10.9712 45.6402 10.4368C45.2812 10.7371 44.579 10.817 44.2862 10.3158C44.1758 10.3944 44.0659 10.475 43.9555 10.5549C44.0656 10.5606 44.1754 10.5677 44.2861 10.575C44.2983 10.7 44.3289 10.8123 44.327 10.9463C43.8465 10.6481 43.3607 11.0737 43.0186 11.078C41.8533 11.1098 43.3296 10.1717 43.6505 10.0646C43.6632 10.2315 43.6619 10.4057 43.6658 10.5755C43.7635 10.4466 43.8615 10.3166 43.9602 10.1874C42.917 9.28701 44.4886 9.25698 44.125 8.56208C43.4732 9.04919 43.0393 8.78636 42.7891 7.98557C42.7262 7.94428 42.6646 7.90076 42.6008 7.86082C42.5238 7.94607 42.4219 8.08765 42.3616 8.13688C41.6364 7.78076 42.1728 6.71012 42.1679 6.56899C42.1439 5.95273 41.5299 6.39263 41.4412 6.34471C41.056 6.13824 41.102 5.80931 40.6707 5.71692C40.2078 5.62228 40.3619 5.97691 40.1412 6.0951C39.9661 6.18862 39.6487 6.05127 39.4431 6.13912C39.5583 6.04018 39.6787 5.9471 39.7957 5.84861C39.483 5.46593 39.2251 5.12837 38.7664 4.86523C37.8103 5.55009 38.035 3.78342 37.6733 5.14383C38.0838 5.42224 38.2636 5.68261 38.3397 6.11455C38.0395 6.02195 37.7383 5.9338 37.4358 5.85249C37.4128 5.67578 37.4115 5.5131 37.371 5.32752C37.0308 5.53577 36.5806 5.20893 36.3463 5.22468C35.2593 5.30588 35.4067 5.92852 34.8167 4.78403C35.4627 4.88966 35.6059 4.46641 36.2086 4.74081C36.1825 4.39123 35.8363 4.34492 36.17 4.05331C35.5192 3.93656 35.6139 4.3292 35.2857 4.54132C35.0047 4.72499 34.5958 4.6199 34.526 4.951C34.5359 4.76091 34.5527 4.5792 34.5608 4.38938C34.1646 4.27963 33.7677 4.17849 33.3674 4.08874C33.5805 3.9411 33.7972 3.79501 34.017 3.65219C33.9037 3.54944 33.7885 3.44786 33.6721 3.34704C32.5492 3.67689 30.9493 2.38173 31.0353 3.87838C30.5515 3.86268 30.5121 3.67593 30.2746 3.37454C30.2347 3.48188 30.1977 3.57078 30.1573 3.69057C29.856 3.54605 29.5858 3.94 29.3207 3.81484C29.0536 3.6913 29.0016 3.30196 28.9323 3.95125C28.7657 3.7555 28.5946 3.59392 28.4203 3.41655C28.3089 3.56128 28.1993 3.70461 28.0925 3.84903C27.9945 3.80173 27.8956 3.75524 27.7961 3.70945C27.7279 3.67805 27.6595 3.64698 27.591 3.61619C27.5038 3.92214 26.8486 3.80137 26.5743 4.02065C26.288 3.70647 26.2278 2.67329 25.5739 2.91535C25.6129 3.16665 25.651 3.41743 25.6889 3.66911C25.5368 3.62841 25.384 3.5895 25.2294 3.55218C25.212 3.47102 25.1958 3.38977 25.1783 3.30868C25.258 3.32595 25.3352 3.34375 25.414 3.36278C25.3347 3.22981 25.256 3.09797 25.1757 2.96617C24.9637 3.19701 24.7577 3.42902 24.5574 3.66194C24.8824 3.77677 25.2075 3.89913 25.5208 4.02965C25.1638 4.24716 24.8776 4.09277 24.5787 4.33685C24.25 4.02992 24.3229 3.82111 24.3919 3.43219C24.2875 3.47886 24.1823 3.52515 24.0792 3.57288C24.0967 3.19289 23.8762 2.99559 24.5282 2.93498C24.4701 2.83447 24.4112 2.73938 24.3527 2.6352C24.2476 2.66727 24.1654 2.588 24.0535 2.64699C23.7479 2.80913 23.6109 3.49794 23.6714 3.71988C23.7019 3.8363 23.9712 3.56035 23.9852 3.73098C24.0147 4.14826 23.3072 4.06189 24.354 4.33224C24.0683 4.63894 23.9671 4.45077 23.5948 4.43463C23.6465 4.56569 23.6968 4.69628 23.7466 4.82802C23.5722 4.79121 23.3969 4.75689 23.2212 4.72457C23.3298 3.98257 22.0109 3.98132 23.0361 3.14564C22.6891 3.18111 22.3409 3.22425 21.9941 3.27335C22.048 3.18686 22.1027 3.10105 22.1579 3.01454C22.321 3.01555 22.4838 3.01773 22.6457 3.02156C22.4377 2.9309 22.2259 2.8447 22.0133 2.76085C21.6145 3.02409 21.5083 3.31068 21.3923 3.65686C21.9344 3.74722 21.7001 3.49239 22.072 3.33971C22.1019 3.53304 22.1592 3.70397 22.1718 3.91134C21.8845 3.56092 21.3143 4.01 21.1751 4.06995C20.7453 4.25146 20.9897 3.77565 20.687 3.8551C20.3826 3.93704 20.104 4.26681 19.7408 3.98562C19.8125 4.18788 19.9013 4.39227 19.9794 4.5724C19.5475 4.79031 19.5568 4.52341 19.4986 4.50837C18.5649 4.2742 18.3056 4.86293 17.4973 5.279C17.6294 5.29003 17.7597 5.29617 17.8907 5.30583C17.443 5.98634 17.8104 5.66798 18.4059 5.5832C17.8815 5.75046 17.7478 6.22326 17.4523 6.47939C17.1555 6.7344 16.4897 6.85336 16.208 6.83947C16.5826 6.37351 17.1915 6.24806 17.722 5.94157C17.5715 5.77698 17.4352 5.64253 17.2716 5.463C17.1124 6.0237 16.7928 5.85218 16.6529 5.85733C16.246 5.87162 16.4288 6.19933 16.0454 5.94687C16.1175 6.06483 16.1773 6.16456 16.245 6.27465C15.5512 6.56763 14.717 6.79276 14.5677 7.47399C14.3578 7.22603 14.1626 6.9833 13.9413 6.73654C13.7974 7.11924 13.431 7.07093 13.2352 7.278C13.0423 7.48342 13.2734 7.63169 13.0716 7.89779C13.0345 7.94672 12.8414 7.89141 12.7941 8.07255C12.742 8.25872 12.8497 9.26143 12.3361 8.70839C12.1208 8.87342 11.9046 9.01414 11.6927 9.17596C11.8644 8.97684 12.0399 8.78084 12.217 8.58626C11.9301 8.58105 11.6441 8.58206 11.3561 8.5905C11.4369 8.73293 11.5197 8.87713 11.6006 9.01624C11.2701 9.55089 10.7761 9.64501 10.3791 10.1104C10.3138 10.1878 10.6963 10.2458 10.323 10.4982C9.95348 10.7501 9.30869 10.5972 8.95172 11.3204C8.93367 11.3585 9.09976 11.8072 8.70146 11.8212C8.61061 11.8255 8.70865 11.5607 8.54924 11.6129C8.388 11.6636 7.92301 12.1198 7.73478 12.0333C7.79504 12.0734 7.87823 12.0889 7.94736 12.1203C7.90493 12.2287 7.8625 12.338 7.8202 12.4469C7.71502 12.3761 7.60915 12.306 7.50441 12.2359C7.34533 12.9349 7.52606 13.4636 6.87632 14.1427C7.16836 14.0248 7.46374 13.9159 7.76003 13.8161C7.69972 13.6853 7.63921 13.5529 7.57906 13.421C7.8726 13.1077 8.175 12.8024 8.48434 12.5083C8.41443 12.3604 8.34464 12.2126 8.27582 12.0624C8.36332 11.9863 8.45018 11.9116 8.53871 11.8371C8.60221 11.9294 8.66526 12.0211 8.7283 12.1136C8.85294 11.9264 8.97978 11.7399 9.10852 11.556C9.28475 12.3145 8.24553 12.48 8.69067 12.7746C8.56434 12.7988 8.4377 12.8241 8.31132 12.8508C8.48273 13.0439 8.29838 13.1526 8.05019 13.4109C8.1982 13.4211 8.35017 13.4253 8.49522 13.4447C8.14306 13.6034 7.79195 14.1017 7.5342 14.3555C7.42053 14.4671 7.36425 14.2381 7.32031 14.2644C7.0918 14.4016 7.09351 14.9538 7.02177 15.0194C6.58996 15.4154 5.90869 15.4591 5.91977 16.196C6.32001 15.6738 6.11223 15.9629 6.40606 15.8675C6.49808 15.8368 7.04454 15.1998 6.45625 16.0564C6.37156 16.1392 5.15433 17.6509 5.18718 16.967C5.12991 17.2893 5.11914 17.5555 5.08627 17.8526C4.12763 18.1839 4.85869 18.2457 5.28815 18.2204C5.24259 18.3229 5.20195 18.4217 5.15484 18.5273C4.8859 18.1363 4.37023 19.3025 4.41094 19.7757C4.42083 19.9317 4.67622 19.6006 4.61407 19.9288C4.53405 20.0656 4.44102 20.221 4.35847 20.368C4.66346 20.2201 4.59315 20.6913 4.82363 20.7595C4.52022 20.9681 4.02491 21.0599 3.84286 20.8265C3.86139 21.098 3.8824 21.3668 3.90628 21.6336C3.99148 21.537 4.07776 21.44 4.16516 21.3459C3.78155 22.0859 3.8538 23.1728 3.36713 23.2456C3.34775 23.3535 3.32866 23.4612 3.31081 23.5684C3.38017 23.6162 3.44975 23.6626 3.51885 23.7097C3.35706 24.1744 3.21106 24.6493 3.08327 25.1269C3.09812 24.688 3.00687 24.567 3.16937 24.1255C3.05327 24.2857 2.93916 24.4529 2.82997 24.614C2.96632 25.3382 3.08526 25.4472 2.93093 26.4753C2.92002 26.5198 2.69752 27.3014 2.68392 27.3276C2.60212 27.4485 2.49524 27.2552 2.45416 27.3089C2.33322 27.4535 2.07549 28.3866 2.03783 28.3895C2.03783 28.3895 2.03782 28.3895 2.03782 28.3895C2.0374 28.3895 2.03699 28.3894 2.03661 28.3893C1.5001 28.1639 1.52095 24.853 1.66108 23.9579C2.366 14.5173 9.22796 6.22721 18.0802 2.5995C18.1711 2.56019 18.0794 2.43834 18.1164 2.41633C18.3487 2.28091 18.6658 2.40623 18.759 2.38137C18.9585 2.3271 18.7824 2.16436 18.9248 2.11095C20.4007 1.56578 21.8667 1.29512 23.4028 0.967993C23.5035 0.94682 23.4285 1.14373 23.6003 1.08033C23.6874 1.04691 23.9335 0.722309 24.1422 0.684976C24.8711 0.555732 25.49 0.571033 26.2654 0.503447C26.6867 0.465825 27.3192 0.455324 27.7961 0.440594C27.7971 0.440562 27.7981 0.440529 27.799 0.440496C28.0093 0.433499 28.2302 0.298385 28.439 0.293272C28.7349 0.286806 28.6658 0.556534 28.7104 0.573354C28.9047 0.64852 28.9434 0.353412 29.1317 0.364234C29.4825 0.387415 29.4913 0.585257 29.935 0.590474C30.2512 0.592753 30.9928 0.490205 31.4021 0.488201C32.3071 0.814036 33.4849 0.91432 34.3672 1.02818C34.8879 1.09488 34.8619 1.38943 35.0671 1.43849C35.7876 1.6138 36.4437 1.41605 37.1259 1.62348C38.0285 1.90171 38.7137 2.43166 39.5335 2.8102C39.6665 2.87188 39.7508 2.6104 39.8866 2.6633C40.3888 2.85863 41.034 3.11793 41.4402 3.37639C41.8954 3.66541 41.8643 4.10815 42.3526 4.29649C42.4958 4.35235 42.7195 4.07307 42.9655 4.16794C43.359 4.32118 43.567 4.82638 43.7835 5.01267C44.082 5.26889 44.0069 4.77867 44.4183 5.11915C44.4353 5.13341 44.3488 5.38974 44.4484 5.44477C44.738 5.60747 44.8351 5.42218 45.2154 5.7277C45.2535 5.75704 45.6093 6.34381 45.6562 6.38477C45.9501 6.61808 46.4697 7.1686 46.6702 7.27581C47.3899 7.65921 47.2019 6.95684 47.1075 8.03779C47.4683 8.08441 47.8316 8.1345 48.205 8.21322C47.9205 8.19984 48.3252 8.99678 48.3758 9.02845C48.8222 9.28776 48.8706 8.8428 49.2596 9.3478C48.1153 9.25463 49.7307 10.0114 49.9795 10.2965C51.1961 11.6061 51.9608 13.0588 52.8402 14.607C53.1353 15.1245 53.6565 15.7644 53.9226 16.3434C53.9854 16.4779 53.766 16.4554 53.817 16.5748C53.8687 16.6937 54.0021 16.4751 54.0539 16.6149C54.3734 17.4949 54.2591 18.2955 55.0173 18.9235C54.9623 18.9863 54.9076 19.004 54.8544 19.0942C55.5204 19.6059 55.3159 21.0725 55.3449 21.5651C55.4027 22.3442 55.7405 22.4777 55.7898 23.0432C55.8573 23.7976 55.4088 24.9793 56.3205 24.3502C56.4241 24.8566 56.4908 25.3596 56.4446 25.8842C56.4393 25.9429 56.1851 25.9246 56.1819 25.948C56.1583 26.0959 56.3865 26.1256 56.4045 26.224C56.452 26.4901 56.1513 26.0727 56.2537 26.4485C56.3066 26.646 56.5139 26.7524 56.5408 27.3123C56.5564 27.6668 56.5645 28.0262 56.5649 28.3895C56.5649 28.3895 56.5649 28.3895 56.5649 28.3895C56.5772 31.4822 55.9733 34.7573 54.9117 37.6845C54.8305 37.9089 55.1118 37.8402 54.995 38.1185C54.5957 39.1002 53.464 40.6278 53.089 41.4289C52.7183 42.2378 53.1181 42.2284 52.9632 42.7922C52.9324 42.9008 52.8051 42.7241 52.7524 42.8075C52.3998 43.3712 51.7099 43.8664 51.372 44.2727C51.1471 44.5426 51.4191 44.6964 51.2945 44.909C51.1065 45.2259 50.6273 45.3384 50.5021 45.4842C49.9134 46.1723 49.702 46.8115 49.0332 47.3565C49.1062 47.3772 49.168 47.4028 49.237 47.4263C48.5477 48.167 47.8206 48.869 47.0581 49.5304C47.135 49.5442 47.2113 49.5592 47.2892 49.5731C46.3703 50.336 46.0332 49.7308 47.0292 50.7277C46.9932 50.8218 46.9575 50.9253 46.9207 51.0137C46.4774 50.4439 45.5872 50.5028 44.7562 50.8859C44.6977 50.9134 44.7468 51.7343 44.3008 51.0415C44.3258 51.2704 44.3502 51.4224 44.3717 51.6222C44.0688 51.5293 43.7687 51.4361 43.473 51.3361C43.4096 51.4227 43.3436 51.5087 43.2789 51.5946C43.3553 51.7361 43.4577 51.8682 43.5172 52.0171C43.128 52.3017 42.1797 52.6353 41.8604 52.8309C41.0744 53.3289 40.3865 54.1301 39.5234 54.0057C39.2168 54.1887 39.6693 54.331 39.1615 54.5014C39.0437 54.3821 38.9327 54.267 38.8125 54.1435C38.6837 54.9414 38.4298 54.5897 37.8266 54.6574C37.4166 54.701 37.2284 54.9418 36.855 55.027C36.7605 55.0481 36.7095 54.8538 36.6492 54.8796C36.449 54.9666 35.9272 55.4046 35.7771 55.451C34.4286 55.8898 33.2215 56.0886 31.8788 56.1844C31.735 56.1946 31.9478 56.3617 31.7982 56.3713C31.5571 56.3863 31.6579 56.0793 31.5186 56.0805C31.1311 56.0831 31.1654 56.3919 30.6238 56.4508C29.7342 56.5443 28.7668 56.5264 27.7961 56.4484C26.832 56.3716 25.8722 56.2361 24.9649 56.11C24.9078 56.1027 24.8934 56.2737 24.8305 56.267C24.4193 56.2204 24.0393 55.9276 23.6772 55.8664C23.0727 55.7625 22.5779 55.8999 21.9829 55.7552C20.8205 55.4691 19.8372 55.0417 18.6998 54.6034C17.7722 54.2407 16.9705 53.9118 16.0001 53.4158C11.7792 51.2825 7.77507 48.1935 5.41302 44.0355C5.35315 43.9306 5.4691 43.9096 5.44564 43.8814C5.22182 43.6142 5.08557 43.6664 5.27535 43.3916C4.99796 43.0486 4.73525 43.0495 4.48973 42.5697C4.3611 42.3134 4.75723 42.3246 4.37951 41.9911C4.04578 41.6847 4.08346 42.2075 3.69409 40.9464C3.68444 40.9124 3.79372 40.6673 3.63803 40.4471C3.48422 40.2233 3.47543 40.5757 3.18539 39.9929C2.50779 38.6151 2.08163 36.7057 1.70562 34.9932C1.6763 34.8886 1.40948 33.8586 1.34762 33.6572C1.21697 33.2697 1.10514 33.3765 1.02192 32.8512C0.960724 32.442 1.06721 32.0899 1.01454 31.6132C1.00874 31.5578 0.868543 31.4791 0.875084 31.114ZM50.6935 22.0425C50.3673 22.0384 49.2263 22.2084 49.4157 21.6303C49.4323 21.5725 50.2656 21.5937 50.2997 21.2794C50.4642 21.526 50.5682 21.7843 50.6946 22.0422C50.6942 22.0423 50.6938 22.0424 50.6935 22.0425ZM3.70205 28.493C3.69786 28.8976 3.7026 29.3001 3.71568 29.7017C3.63549 29.4279 3.56187 29.1528 3.49431 28.8745C3.56374 28.7461 3.63312 28.6196 3.70205 28.493ZM39.1744 48.7005C39.1741 48.7007 39.1738 48.7009 39.1734 48.701C39.4598 48.3765 39.7331 48.0456 39.9948 47.7088C40.0144 47.8186 40.0335 47.9289 40.0519 48.0389C39.867 48.3492 39.6732 48.6559 39.47 48.9594C39.3709 48.8734 39.2723 48.7872 39.1744 48.7005ZM36.6595 51.0967C36.3627 51.086 36.3537 50.8747 36.1477 50.7459C36.1478 50.7463 36.148 50.7466 36.1481 50.7469C36.094 50.7137 35.9101 50.7359 35.8427 50.7527C35.9088 50.861 35.9819 50.9651 36.0506 51.0715C35.5404 51.5794 34.0954 50.9403 35.4021 50.0306C35.433 50.1866 35.464 50.3416 35.4939 50.4978C36.1942 50.1986 37.1312 50.1699 36.6595 51.0967ZM47.8308 16.526C47.0168 16.2515 46.8267 16.1596 46.7033 15.2947C46.8952 15.2962 47.088 15.3001 47.2814 15.3059C47.221 15.5055 47.1584 15.7022 47.0928 15.8988C47.093 15.8991 47.0932 15.8994 47.0934 15.8997C47.2493 15.8294 47.4058 15.7595 47.5617 15.6892C47.657 15.967 47.7475 16.2473 47.8308 16.526ZM12.1287 46.9076C12.4786 46.2044 12.2311 46.5834 12.7593 46.7799C12.9423 46.8459 12.8863 46.6317 12.9904 46.6837C13.5526 46.955 13.2787 47.3955 12.9996 47.5279C12.7038 47.3284 12.4108 47.1186 12.1295 46.9083C12.1292 46.908 12.129 46.9078 12.1287 46.9076ZM3.6458 33.1425C3.64572 33.1421 3.64564 33.1417 3.64556 33.1413C3.76421 33.1018 3.85188 33.3438 3.90649 33.0405C3.95228 33.2533 4.00077 33.4676 4.05278 33.6813C4.02581 33.6212 3.99935 33.5595 3.97297 33.499C3.9436 33.5636 3.91373 33.6288 3.88439 33.694C4.04557 33.7385 3.97945 33.8268 3.98812 34.0622C4.12623 33.9639 4.26408 33.8671 4.4013 33.7715C4.4231 34.037 4.44769 34.3017 4.4763 34.5688C4.43792 34.5823 4.39948 34.596 4.36109 34.6095C4.43938 34.6927 4.51882 34.7738 4.59887 34.855C4.55966 34.894 4.52056 34.9321 4.48129 34.9715C4.55273 35.0769 4.62529 35.1815 4.69935 35.2847C4.59565 35.354 4.46225 35.1162 4.63924 35.5554C4.47448 35.4551 4.31224 35.3517 4.15144 35.2439C3.95223 34.5502 3.78404 33.8503 3.6458 33.1425ZM16.3398 49.4152C15.6406 49.0798 15.9017 49.0698 16.2565 48.7994C16.2816 49.0032 16.3101 49.2088 16.3398 49.4152ZM49.8805 37.9432C49.6212 37.5849 49.3574 37.2372 49.0972 36.8966C49.0581 36.4181 49.8574 36.2386 49.9979 36.6495C50.16 37.1524 49.6631 37.4125 49.8805 37.9432ZM51.6631 27.7653C51.4962 28.3258 51.0308 27.8081 50.7608 27.6991C51.1835 27.5371 51.1393 27.3289 51.1694 26.9866C51.2163 27.3018 51.6913 27.6698 51.6643 27.7653C51.6639 27.7653 51.6635 27.7653 51.6631 27.7653ZM44.5589 45.0986C44.4118 45.2638 44.3254 45.4932 44.0963 45.5402C43.8974 45.2443 44.3972 45.2014 43.8357 45.0216C43.9282 44.9183 44.02 44.8143 44.109 44.7096C44.2007 44.9252 44.3977 44.956 44.5577 45.0982C44.5581 45.0984 44.5585 45.0985 44.5589 45.0986ZM23.4384 51.4674C23.8 51.8819 23.9173 51.7503 24.381 51.5643C24.4036 51.8588 23.808 52.264 23.4555 52.3074C23.4484 52.0268 23.4429 51.7468 23.4384 51.4674ZM7.42435 15.6675C7.25965 15.441 7.67093 14.7625 7.96963 14.4937C7.97475 14.5542 7.98034 14.615 7.98622 14.6755C7.79157 15.0028 7.60421 15.3336 7.42435 15.6675ZM51.1898 26.8233C51.1803 26.8809 51.1738 26.9353 51.1694 26.9866C51.1611 26.9304 51.1654 26.8755 51.1898 26.8233ZM40.561 6.4545C40.931 6.21191 40.4908 5.80038 41.0288 6.29528C41.0289 6.29495 41.0291 6.29463 41.0293 6.2943C41.3813 6.62484 41.454 6.70329 41.8028 6.96519C41.3871 7.30651 40.5764 6.99919 41.507 7.73014C41.5196 7.73926 41.6629 7.46746 41.7977 7.60836C41.8393 7.65222 41.8541 7.96428 42.0416 8.18676C42.1031 8.2589 42.612 8.719 41.8522 8.18274C41.6696 8.49257 41.4218 8.76191 41.2252 9.04875C40.8868 8.93293 41.053 8.19975 40.7238 8.00857C40.2333 7.72772 39.6391 8.19535 40.0104 7.34426C40.534 7.38449 41.2379 7.82994 41.0124 8.35441C41.3808 8.61138 41.7535 8.31375 41.5713 7.91415C40.0739 7.28199 41.5699 7.0836 40.1583 6.66698C40.0802 6.76969 39.9619 6.86068 39.9103 6.96966C39.7546 6.36526 40.4279 6.53915 40.561 6.4545ZM42.8067 9.1716C42.4214 9.21908 42.0404 9.27713 41.6662 9.34262C41.9294 8.98169 42.285 8.74144 42.7864 8.80705C42.7936 8.92876 42.8009 9.05098 42.8067 9.1716ZM20.9867 4.95816C21.0047 5.16255 20.9565 5.36787 20.9397 5.57159C20.8134 5.41046 18.9057 5.88353 19.7943 5.40915C19.9262 5.33362 20.8728 5.41117 20.9867 4.95816ZM20.4325 51.0683C20.609 51.2628 20.7876 51.4561 20.9706 51.6482C20.607 51.6345 20.2388 51.6125 19.8717 51.5806C20.0614 51.4129 20.2478 51.2418 20.4325 51.0683ZM51.5215 34.5263C51.4876 34.6188 51.2274 34.2161 51.1844 34.6027C51.0394 34.2673 50.9159 33.9669 50.7691 33.6535C50.95 33.6111 51.1305 33.5658 51.3115 33.5197C51.2204 33.4333 51.1297 33.3466 51.0376 33.2618C51.2682 33.3493 51.4938 33.4324 51.7273 33.5251C51.1167 33.8772 51.6691 34.1107 51.5215 34.5263ZM44.9195 47.1953C44.5163 46.8774 44.8214 46.1852 44.2645 46.5873C44.1363 46.253 44.1681 45.9878 44.4273 45.6955C44.5609 45.7441 44.6943 45.7914 44.8291 45.8385C44.5959 45.5872 44.5801 45.4253 44.5589 45.0986C44.5593 45.0988 44.5597 45.0989 44.5601 45.0991C44.9506 44.6634 45.0039 44.7659 45.5147 45.0496C44.8485 45.2901 45.2067 45.6574 45.1044 46.1877C45.0329 46.5519 44.6757 46.7532 44.9195 47.1953ZM23.0329 4.47054C22.6634 4.9102 23.129 5.15021 22.2752 4.9451C22.3042 4.84598 22.3342 4.74743 22.3643 4.64804C22.5855 4.58508 22.8104 4.52561 23.0329 4.47054ZM42.0945 47.3018C42.5995 47.8944 43.3208 48.1034 42.5872 47.0649C42.1135 47.1123 42.7051 47.5586 42.0945 47.3018ZM52.9536 27.9327C52.9474 28.146 52.878 28.2944 52.7721 28.3895C52.7721 28.3895 52.7721 28.3895 52.7721 28.3895C52.5254 28.6109 52.0839 28.546 51.7431 28.3895C51.665 28.3536 51.5922 28.3127 51.528 28.2689C51.6964 28.2186 51.865 28.1675 52.0321 28.1164C51.954 27.9782 51.8746 27.8417 51.7953 27.7066C52.1813 27.778 52.5681 27.8534 52.9536 27.9327ZM29.5823 52.9281C30.1508 52.3786 28.9101 52.6972 29.3121 52.3527C29.6265 52.079 30.1049 52.5415 29.9676 52.8755C29.8508 52.8951 29.7201 52.9124 29.5835 52.928C29.5831 52.928 29.5827 52.9281 29.5823 52.9281ZM33.0558 52.2643C32.84 51.7441 33.0159 51.8737 32.5705 52.0699C32.4445 52.131 31.3462 52.1161 31.8687 52.4858C32.2543 52.4193 32.6566 52.3481 33.0558 52.2643ZM50.1865 19.0552C50.4333 18.9369 51.3025 19.5128 51.1999 19.6741C51.2002 19.674 51.2006 19.6738 51.201 19.6737C50.9241 20.089 50.5558 19.2777 50.173 19.8359C50.3242 18.8691 49.1258 19.106 50.5804 18.542C50.8437 18.9849 50.4518 18.8864 50.1865 19.0552ZM3.18731 25.1339C3.18726 25.1343 3.1872 25.1347 3.18715 25.1351C3.19858 25.0777 3.44087 24.6383 3.49253 24.7044C3.35281 25.2504 3.25915 25.141 3.37182 25.6826C3.31021 25.7049 3.25103 25.7234 3.18915 25.7483C3.17944 25.5362 3.12262 25.4116 3.18731 25.1339ZM18.8074 5.23673C18.9834 5.10947 19.4198 5.19022 19.6373 5.1019C19.2298 6.15947 18.12 5.73928 18.8074 5.23673ZM6.41404 40.339C6.41453 40.3394 6.41502 40.3398 6.41552 40.3402C6.41513 40.3402 6.41471 40.3401 6.41433 40.3402C6.41423 40.3398 6.41413 40.3394 6.41404 40.339ZM34.5184 5.14565C34.5116 5.07482 34.5131 5.01555 34.5218 4.96569C34.5231 4.96115 34.5244 4.9566 34.5257 4.95205C34.5224 5.01543 34.5197 5.07975 34.5184 5.14565ZM49.3917 17.5155C49.5679 17.0267 50.6334 17.8231 50.656 18.2452C50.488 18.2904 50.3439 18.3498 50.1387 18.3743C50.4197 17.9058 49.3599 17.5887 49.3917 17.5155ZM47.5635 42.5578C48.1064 41.8051 48.5996 43.6529 47.6187 43.0036C47.6025 42.9882 47.5523 42.5779 47.5635 42.5578ZM51.7741 24.2984C52.2599 24.4566 52.306 23.965 52.346 24.7355C52.236 24.7967 52.1255 24.8573 52.015 24.9173C51.9378 24.7106 51.8569 24.5032 51.7741 24.2984ZM52.2437 38.0053C52.4767 36.7421 52.3616 35.5154 50.9461 35.8754C50.9574 35.971 50.9665 36.0677 50.9766 36.1637C51.5489 36.3692 51.1315 36.5778 50.9465 37.0184C51.1491 37.1668 51.1049 37.4384 51.2767 37.5604C51.6084 37.7987 51.9852 37.6004 52.2437 38.0053ZM9.57545 45.767C9.6372 45.7347 9.69887 45.7017 9.76006 45.6695C9.94463 45.7525 10.1302 45.8329 10.3165 45.9094C10.2032 45.9804 10.0898 46.0508 9.9762 46.1208C9.84139 46.0046 9.70834 45.8875 9.576 45.7681C9.57581 45.7678 9.57563 45.7674 9.57545 45.767ZM44.4798 8.95593C43.6861 9.72164 44.0934 9.79412 45.0372 9.91016C44.8603 9.58974 44.6739 9.27097 44.4798 8.95593ZM38.5982 51.7628C38.449 51.5011 38.3014 51.2398 38.1529 50.978C37.9157 51.4294 38.1151 51.7128 38.4638 51.9925C38.5097 51.916 38.5535 51.8396 38.5982 51.7628ZM32.9044 53.7196C33.0867 53.7452 32.9532 53.5342 32.9719 53.5353C33.4262 53.5672 33.5158 53.6598 33.9976 53.3644C34.0468 53.2892 34.0936 53.2109 34.1411 53.1334C33.7546 52.602 33.6625 52.9686 33.084 52.7308C33.2178 52.9142 33.3534 53.0973 33.4918 53.2804C33.1986 53.301 32.9054 53.3173 32.6146 53.3277C32.5931 53.3966 32.571 53.4649 32.5488 53.5337C32.6656 53.5955 32.7885 53.666 32.9044 53.7196ZM8.28426 44.0024C8.12425 43.7763 7.96761 43.5466 7.81492 43.3159C7.72725 43.3689 7.63927 43.4225 7.55157 43.4752C7.79221 43.657 8.03707 43.8333 8.28426 44.0024ZM39.4431 6.13912C39.3979 6.17792 39.3531 6.21735 39.3102 6.25878C39.3437 6.19846 39.3898 6.16176 39.4431 6.13912ZM2.7168 25.8159C2.63834 26.1245 2.63751 26.5823 2.61125 26.9297C2.77731 26.9106 2.78985 26.0317 2.93239 25.738C2.90624 25.6854 2.74983 25.6842 2.7168 25.8159ZM52.9114 29.0701C53.1203 29.1547 53.3277 29.2412 53.5358 29.3284C53.506 29.5229 53.4729 29.7155 53.4386 29.9118C53.6107 29.9277 53.7844 29.9437 53.9565 29.9598C53.7779 29.0688 54.2613 29.2982 54.7644 28.8588C54.1473 28.9357 53.53 29.0052 52.9114 29.0701ZM3.57349 36.493C3.81859 37.0674 4.00238 37.2281 4.132 36.8156C4.00394 36.6326 3.87849 36.4454 3.75668 36.2564C3.69578 36.335 3.63479 36.4143 3.57349 36.493ZM28.7909 2.97546C28.2853 3.12021 28.2722 2.56592 27.7961 2.84054C27.7834 2.84797 27.7704 2.85602 27.757 2.8647C27.77 2.86978 27.7831 2.87488 27.7961 2.87999C28.0564 2.98196 28.3127 3.08959 28.5639 3.20051C28.6383 3.12548 28.7153 3.05013 28.7909 2.97546ZM51.3765 14.4742C51.4548 14.1449 50.2769 14.3725 50.6134 13.3777C50.319 13.3838 50.0679 13.4356 49.7926 13.4634C49.9677 13.2519 50.1377 13.0281 50.3096 12.8175C50.3094 12.8171 50.3091 12.8167 50.3089 12.8164C49.8887 12.3789 49.8449 12.8878 49.6074 13.0364C49.5099 13.098 49.4132 12.6348 49.288 12.8918C49.0762 13.3292 49.7665 13.8949 49.3234 14.1902C49.3046 13.8457 48.8491 13.4506 48.6597 13.7943C48.4479 14.1642 49.2894 14.2459 49.2054 14.7133C49.6467 13.8342 49.9924 14.8533 49.4878 15.2892C50.2231 15.5451 50.125 14.9657 49.7659 14.4478C50.3936 14.5047 49.8633 14.1726 50.1572 13.8681C50.5972 14.0635 51.1339 15.3752 51.3765 14.4742ZM50.0311 42.7218C50.2378 42.3492 50.8341 41.9179 50.6132 41.4528C50.4833 41.1866 49.9898 41.6562 49.8813 41.0744C49.7126 41.4403 49.7913 41.5964 50.1179 41.7107C50.1046 41.8116 50.0893 41.913 50.0736 42.0137C49.9945 42.0162 49.9157 42.0199 49.8369 42.0218C49.9291 42.1366 50.0197 42.2516 50.1114 42.3665C50.0345 42.437 49.9565 42.5078 49.8781 42.5766C49.9304 42.6243 49.9705 42.6741 50.0311 42.7218ZM14.6402 6.71727C14.7357 6.65504 14.8306 6.59403 14.9266 6.53238C14.8851 6.48678 14.8403 6.44036 14.7962 6.39446C14.7623 6.35764 14.7284 6.32088 14.6944 6.28417C14.8419 6.39696 15.4548 6.37765 15.5639 6.10276C15.62 5.96301 15.2241 5.79644 15.6316 5.50291C15.3235 5.69201 15.0553 5.89944 14.7706 6.10362C14.7473 6.00185 14.7227 5.89956 14.6999 5.79731C14.6997 5.79729 14.6994 5.79727 14.6992 5.79725C14.5873 5.83843 14.474 5.88032 14.3627 5.92332C14.4537 6.18965 14.5466 6.45367 14.6402 6.71727ZM39.1625 52.1559C39.4207 51.7593 39.4759 51.5838 39.1306 51.3059C39.1302 51.3059 39.1297 51.3059 39.1293 51.306C39.0773 51.5302 39.0214 51.7544 38.9629 51.9779C39.0288 52.0375 39.095 52.0972 39.1625 52.1559ZM36.8582 3.57297C35.5562 4.69925 37.6391 4.48217 37.4984 3.88467C37.4916 3.85515 36.878 3.75401 36.8582 3.57297ZM53.4605 27.7697C53.4774 27.975 53.4909 28.1816 53.5027 28.3895C53.5027 28.3895 53.5027 28.3895 53.5027 28.3895C53.5041 28.4139 53.5055 28.4383 53.5068 28.4627C53.5993 28.4388 53.6915 28.4143 53.7838 28.3895C53.7838 28.3895 53.7838 28.3895 53.7838 28.3895C53.8951 28.3596 54.0063 28.3293 54.1177 28.299C53.9008 28.1179 53.6809 27.9412 53.4605 27.7697ZM4.16474 39.1925C4.0384 39.5174 4.21605 40.1456 4.59403 40.2984C4.55196 40.138 4.51121 39.9775 4.47172 39.8171C4.62754 40.0805 4.78959 40.3356 4.95464 40.5942C5.27296 40.4422 4.9297 40.2282 4.78951 39.7084C4.7674 39.6249 4.93274 38.9787 4.57369 38.9481C4.49929 38.9415 4.68408 39.467 4.35533 39.1943C4.40972 39.3558 4.47249 39.4875 4.53187 39.6369C4.46312 39.6832 4.39423 39.7295 4.32595 39.777C4.26971 39.5816 4.2168 39.3879 4.16474 39.1925ZM51.2486 40.5476C51.5505 40.041 51.354 39.8617 51.0088 39.5626C50.9375 39.8246 50.8612 40.0856 50.7812 40.346C50.9368 40.4127 51.0918 40.4808 51.2486 40.5476ZM6.59969 43.7669C6.74615 44.055 6.84508 43.8124 6.95231 43.8914C7.35891 44.1865 7.431 44.5451 7.80374 44.8541C7.75055 44.8572 7.70115 44.8603 7.64969 44.8631C7.64995 44.8635 7.65021 44.8638 7.65046 44.8641C8.94353 46.7337 8.55586 45.4834 7.66412 44.4961C7.70996 44.4193 7.75676 44.3436 7.80233 44.2678C7.32384 43.8916 6.89795 43.5185 6.59969 43.7669ZM43.6361 7.1081C43.6622 7.02822 44.1502 6.75205 43.6642 6.69451C42.9558 7.10093 43.6161 7.12029 43.5515 7.43085C43.4186 7.42098 43.2854 7.40932 43.1542 7.4023C43.5626 7.96222 43.7445 7.88664 43.8817 7.30513C43.8899 7.26506 43.6095 7.18734 43.6361 7.1081ZM40.0065 4.4691C39.4395 5.37996 40.4034 5.33776 40.5404 5.03485C40.4419 4.96708 40.275 5.08472 40.202 4.95607C40.1276 4.82702 40.2152 4.58957 40.0065 4.4691ZM54.109 23.7333C54.1103 23.7086 54.5426 23.3694 54.1725 23.4636C53.3453 23.9319 54.0128 24.4435 54.3069 24.2926C54.259 24.0865 54.1029 23.9708 54.1102 23.7331C54.1098 23.7331 54.1094 23.7332 54.109 23.7333ZM2.80317 35.6315C2.7898 35.647 2.85811 36.2707 2.9675 36.321C3.08169 36.3535 3.19397 36.3513 3.30768 36.3656C3.11504 36.0725 3.01099 35.3941 2.80348 35.6327C2.80338 35.6323 2.80328 35.6319 2.80317 35.6315Z" fill="#EF8B54"/>
<circle cx="21.2961" cy="23.4279" r="2.5" fill="#EF8B54"/>
<circle cx="36.2961" cy="23.4279" r="2.5" fill="#EF8B54"/>
<path d="M19.1741 37.8512C22.3462 34.8906 30.6359 30.7457 38.4181 37.8512" stroke="#EF8B54" stroke-width="1.5" stroke-linecap="round"/>
</svg>
